<svg xmlns="http://www.w3.org/2000/svg" width="736" height="736"><path d="M0 0h736v736H0V0z" fill="#FEFEFE"/><path d="m410 131 2.412.47A317.328 317.328 0 0 1 428 135l3.488.863C455.315 142.22 477.3 152.777 498 166l2.64 1.648c11.618 7.444 22.644 16.594 32.36 26.352a1913.55 1913.55 0 0 0 3.113 3.043l3.2 3.144 1.666 1.616c1.378 1.361 2.704 2.775 4.021 4.197v2l3 1a132.162 132.162 0 0 1 5.375 6.625l1.422 1.832A455.572 455.572 0 0 1 559 223l1.466 1.952C564 229.757 564 229.757 564 232h2l.848 1.582c2.331 4.28 4.777 8.413 7.465 12.48 7.203 11.245 12.578 23.285 16.965 35.87.735 2.106 1.492 4.204 2.25 6.302C613.051 343.391 610.814 406.498 587 460l-1.05 1.776c-1.28 2.998-1.38 5.729-1.575 8.974l-.227 3.547L584 477h-2.521a122211.212 122211.212 0 0 0-165.692.153l-3.572.005c-19.085.026-38.17.035-57.257.038-19.583.003-39.166.025-58.75.065-12.083.023-24.167.032-36.252.023-8.286-.006-16.572.007-24.858.035-4.781.015-9.562.022-14.343.008-4.38-.014-8.76-.004-13.14.024-1.58.007-3.162.004-4.744-.007-8.842-.06-16.457.297-23.871 5.656-2.439 2.626-2.439 2.626-4 5h-2l-.875 2.688C171 494 171 494 169.951 496.236c-1.19 3.456-1.275 6.69-1.287 10.303l-.02 2.186a669.39 669.39 0 0 0-.015 4.574c-.004 2.298-.04 4.595-.078 6.892-.083 10.723.798 21.192 8.659 29.323 8.17 6.781 16.642 7.25 26.915 7.298L218 557v-40h-18v-2h130v2h-74v28h21v1h-21v11h328v16l-3.604-.036c-11.31-.106-22.618-.152-33.928-.143-5.813.003-11.623-.014-17.436-.078-34.09-1.292-34.09-1.292-65.045 10.984-4.518 2.895-9.687 4.418-14.737 6.148l-3.153 1.1c-16.91 5.803-33.652 9.219-51.364 11.649-2.192.302-4.38.631-6.565.97-39.042 4.7-83.046-3.326-118.168-20.594-2.61-1.209-2.61-1.209-5.223-2.411-2.595-1.19-5.186-2.39-7.777-3.589l-1 14c-6.454-3.984-12.395-7.893-18-13-4.66 1.521-7.935 4.09-11.688 7.125C220.262 590 220.262 590 218 590v-17l-6.105.176c-2 .035-3.999.07-5.998.099-1.367.024-2.733.058-4.099.102-14.019.438-25.443-2.652-35.798-12.377-5.816-5.545-9.126-11.53-12-19-.345-.871-.69-1.742-1.044-2.64-1.133-3.983-1.28-7.73-1.292-11.837l-.02-2.444c-.01-1.702-.015-3.405-.015-5.108-.004-2.568-.04-5.134-.078-7.701-.072-10.536.408-20.208 6.449-29.27-.337-4.128-1.449-7.4-3.258-11.098l-1.386-2.894-1.481-3.07C141.029 442.796 133.111 417.567 131 392l-.254-2.845C126.309 336.792 136.718 279.389 168 236c.907-1.306 1.811-2.614 2.715-3.922C177.847 221.796 185.05 211.801 194 203l2.719-2.719L205 192l2.371-2.45c9.241-8.966 19.737-16.724 30.629-23.55l2.96-1.91C290.266 132.855 352.3 119.41 410 131z" fill="#9FB8D9"/><path d="m285.156 246.76 2.476-.006c2.734-.003 5.469.008 8.203.019h5.884c5.324-.002 10.648.01 15.972.024 5.564.013 11.128.014 16.692.016 10.536.006 21.072.023 31.608.043 11.995.022 23.99.033 35.985.043 24.675.021 49.35.056 74.024.101v8l-3.075.004c-24.688.037-49.375.096-74.062.18-11.939.04-23.877.072-35.816.087-10.404.013-20.81.04-31.214.084-5.51.022-11.02.038-16.53.037-5.186 0-10.371.017-15.557.05-1.903.008-3.807.01-5.71.004-2.6-.007-5.198.011-7.798.035l-2.281-.023c-5.116.083-8.002 1.344-11.957 4.542-3.72 4.366-3.484 8.84-3.437 14.312l-.061 2.475c.004 5.684.93 10.632 4.498 15.213 3.528 2.175 6.635 2.378 10.75 2.625L290 295v-22h17v22h169v9l2.044-.063c3.11-.085 6.22-.136 9.331-.187l3.215-.102c10.932-.134 18.564 2.736 26.5 10.266 2.637 2.88 4.243 5.551 5.91 9.086.355.737.71 1.474 1.074 2.234 1.16 3.463 1.269 6.727 1.297 10.34.01.724.018 1.448.027 2.194.015 1.529.024 3.057.028 4.586.011 2.31.06 4.616.111 6.925.094 8.583-.567 15.427-5.537 22.721l-2.187 3.25c-4.487 4.387-9.845 7.76-15.813 9.75l48 1v75h34v16l-6.14.002a120296.99 120296.99 0 0 0-165.645.156c-19.085.026-38.17.035-57.257.038-19.583.003-39.166.025-58.75.065-12.083.023-24.167.032-36.252.023a6288.74 6288.74 0 0 0-24.858.035c-4.781.015-9.562.022-14.343.008-4.38-.014-8.76-.004-13.14.024-1.58.007-3.162.004-4.744-.007-8.842-.06-16.457.297-23.871 5.656-2.439 2.626-2.439 2.626-4 5h-2l-.875 2.687C171 494 171 494 169.951 496.236c-1.19 3.456-1.275 6.69-1.287 10.303l-.02 2.186a669.39 669.39 0 0 0-.015 4.574c-.004 2.298-.04 4.595-.078 6.892-.083 10.723.798 21.192 8.659 29.323 8.17 6.781 16.642 7.25 26.915 7.298L218 557v-40h-18v-2h130v2h-74v28h21v1h-21v11h328v16l-3.604-.036c-11.31-.106-22.618-.152-33.928-.143-5.813.003-11.623-.014-17.436-.078-34.09-1.292-34.09-1.292-65.045 10.984-4.518 2.895-9.687 4.418-14.737 6.148l-3.153 1.1c-16.91 5.803-33.652 9.219-51.364 11.649-2.192.302-4.38.631-6.565.97-39.042 4.7-83.046-3.326-118.168-20.594-2.61-1.209-2.61-1.209-5.223-2.411-2.595-1.19-5.186-2.39-7.777-3.589l-1 14c-6.454-3.984-12.395-7.893-18-13-4.66 1.521-7.935 4.09-11.687 7.125C220.263 590 220.263 590 218 590v-17l-6.105.176c-2 .035-3.999.07-5.998.099-1.367.024-2.733.058-4.099.102-14.019.438-25.443-2.652-35.798-12.377-5.816-5.545-9.126-11.53-12-19-.345-.871-.69-1.742-1.044-2.64-1.133-3.983-1.28-7.73-1.292-11.837l-.02-2.444c-.01-1.702-.015-3.405-.015-5.108-.004-2.568-.04-5.134-.078-7.701-.106-15.377 2.96-27.506 13.762-38.958C172.82 466.246 179.866 462.955 190 461l-4-1v-74h24v-12l4.497-.007a108354.787 108354.787 0 0 0 118.648-.255l2.614-.007c13.973-.036 27.946-.06 41.92-.081 14.335-.022 28.67-.055 43.006-.099 8.847-.026 17.695-.044 26.542-.05 6.065-.006 12.13-.022 18.195-.047 3.5-.014 7-.023 10.501-.019 3.795.002 7.59-.015 11.384-.036l3.354.014c7.068-.065 11.429-1.044 17.027-5.6 5.834-7.097 5.78-14.572 5.687-23.376l.035-3.326c-.027-7.59-.729-12.72-5.535-18.799-7.398-5.95-14.492-6.898-23.777-6.831l-3.55-.023c-3.23-.016-6.458-.015-9.687-.007-3.491.005-6.982-.013-10.472-.028-6.04-.023-12.081-.032-18.121-.031-8.734.002-17.467-.019-26.2-.044-14.17-.042-28.341-.065-42.512-.077a28990.836 28990.836 0 0 1-43.858-.07l-12.777-.03c-35.307-.082-70.614-.136-105.921-.171v-11l67-1-8-3c-2.207-1.832-2.207-1.832-3.812-3.813l-1.645-1.957c-4.468-6.458-5.037-11.422-4.98-19.105l-.061-2.895c.005-7.485 1.492-12.8 6.463-18.472l1.973-1.633 1.964-1.68c4.912-3.384 9.42-3.73 15.254-3.686z" fill="#C35C6B"/><path d="m195.444 476.877 2.001-.004c2.228-.002 4.456.002 6.684.007l4.821-.003c4.429-.002 8.857.002 13.285.007 4.771.004 9.542.003 14.313.002 8.27 0 16.54.003 24.81.008 11.958.008 23.915.011 35.872.012 19.398.002 38.797.01 58.195.019 18.847.009 37.694.016 56.541.02h3.519l17.475.005c48.346.01 96.693.028 145.04.05-1.86 5.908-4.717 10.437-8.125 15.586-6.864 12.499-5.741 31.36-1.875 44.727 2.305 7.306 6.13 12.79 11 18.687v1H256v-40h74v-2H200v2h18v40l-13.875.313-4.312.137c-9.084.099-15.799-1.19-22.824-7.158-8.742-8.989-9.668-20.1-9.565-32.044.013-2.246-.02-4.487-.059-6.732-.044-8.78 1.061-15.814 5.635-23.516h2l.723-1.8c1.548-2.667 3.128-3.735 5.715-5.387l2.37-1.543c3.976-2.303 7.12-2.395 11.636-2.393z" fill="#D2D3D5"/><path d="M207.046 459.512a1640.89 1640.89 0 0 1 16.347.009c4.314.015 8.628.007 12.942.002 8.441-.006 16.882.01 25.323.031 9.863.025 19.726.028 29.59.03 17.631.003 35.263.026 52.895.06a35592.702 35592.702 0 0 0 54.278.062l12.626.006c17.308.008 34.615.025 51.923.044 3.918.004 7.835.008 11.753.01 10.313.01 20.627.022 30.94.042 4.257.009 8.515.016 12.772.019 21.872.016 43.705.418 65.565 1.173v16l-6.14.002a120296.99 120296.99 0 0 0-165.645.156c-19.085.026-38.17.035-57.257.038-19.583.003-39.166.025-58.75.065-12.083.023-24.167.032-36.252.023a6288.74 6288.74 0 0 0-24.858.035c-4.781.015-9.562.022-14.343.008-4.38-.014-8.76-.004-13.14.024-1.58.007-3.162.004-4.744-.007-8.842-.06-16.457.297-23.871 5.656-2.439 2.626-2.439 2.626-4 5h-2l-.875 2.687C171 494 171 494 169.951 496.236c-1.19 3.456-1.275 6.69-1.287 10.303l-.02 2.186a669.39 669.39 0 0 0-.015 4.574c-.004 2.298-.04 4.595-.078 6.892-.083 10.723.798 21.192 8.659 29.323 8.17 6.781 16.642 7.25 26.915 7.298L218 557v-40h-18v-2h130v2h-74v28h21v1h-21v11h328v16l-3.604-.036c-11.31-.106-22.618-.152-33.928-.143-5.813.003-11.623-.014-17.436-.078-34.09-1.292-34.09-1.292-65.045 10.984-4.518 2.895-9.687 4.418-14.737 6.148l-3.153 1.1c-16.91 5.803-33.652 9.219-51.364 11.649-2.192.302-4.38.631-6.565.97-39.042 4.7-83.046-3.326-118.168-20.594-2.61-1.209-2.61-1.209-5.223-2.411-2.595-1.19-5.186-2.39-7.777-3.589l-1 14c-6.454-3.984-12.395-7.893-18-13-4.66 1.521-7.935 4.09-11.687 7.125C220.263 590 220.263 590 218 590v-17l-6.105.176c-2 .035-3.999.07-5.998.099-1.367.024-2.733.058-4.099.102-14.019.438-25.443-2.652-35.798-12.377-5.816-5.545-9.126-11.53-12-19-.345-.871-.69-1.742-1.044-2.64-1.133-3.983-1.28-7.73-1.292-11.837l-.02-2.444c-.01-1.702-.015-3.405-.015-5.108-.004-2.568-.04-5.134-.078-7.701-.106-15.377 2.96-27.506 13.762-38.958 12.024-11.292 25.56-13.937 41.733-13.8z" fill="#4C769B"/><path d="M215 316a78981.863 78981.863 0 0 1 120.898-.22l2.568-.003c13.716-.017 27.433-.049 41.15-.086 14.075-.037 28.15-.06 42.226-.067 8.685-.006 17.37-.023 26.054-.056 5.956-.02 11.912-.027 17.868-.022 3.436.003 6.872-.001 10.308-.023 3.728-.02 7.456-.015 11.184-.004l3.278-.035c7.397.058 13.016 1.164 18.525 6.516l1.378 2 1.434 2c3.134 5.553 2.35 12.07 2.379 18.25.03 1.661.03 1.661.063 3.355.037 7.851-.443 13.997-5.688 20.207-4.57 3.809-8.343 6.314-14.306 6.311l-3.01.006-3.331-.009-3.52.003c-3.233.001-6.467-.002-9.7-.007-3.484-.004-6.967-.003-10.45-.002-6.039 0-12.077-.003-18.115-.008-8.73-.008-17.461-.011-26.191-.012-14.164-.002-28.327-.01-42.49-.019-13.762-.009-27.523-.016-41.284-.02h-2.569l-12.759-.005c-35.3-.01-70.6-.028-105.9-.05l1-3h2l.313-2.688c.706-3.405 1.85-5.403 3.687-8.312 3.652-11.854 1.327-25.738-3-37a98.796 98.796 0 0 1-1-4h-2l-1-3z" fill="#D2D3D6"/><path d="m285.156 246.76 2.476-.006c2.734-.003 5.469.008 8.203.019h5.884c5.324-.002 10.648.01 15.972.024 5.564.013 11.128.014 16.692.016 10.536.006 21.072.023 31.608.043 11.995.022 23.99.033 35.985.043 24.675.021 49.35.056 74.024.101v8l-3.075.004c-24.688.037-49.375.096-74.062.18-11.939.04-23.877.072-35.816.087-10.404.013-20.81.04-31.214.084-5.51.022-11.02.038-16.53.037-5.186 0-10.371.017-15.557.05-1.903.008-3.807.01-5.71.004-2.6-.007-5.198.011-7.798.035l-2.281-.023c-5.116.083-8.002 1.344-11.957 4.542-3.72 4.366-3.484 8.84-3.437 14.312l-.061 2.475c.004 5.684.93 10.632 4.498 15.213 3.528 2.175 6.635 2.378 10.75 2.625L290 295v-22h17v22h169v9l2.044-.063c3.11-.085 6.22-.136 9.331-.187l3.215-.102c10.932-.134 18.564 2.736 26.5 10.266 2.637 2.88 4.243 5.551 5.91 9.086.355.737.71 1.474 1.074 2.234 1.16 3.463 1.269 6.727 1.297 10.34.01.724.018 1.448.027 2.194.015 1.529.024 3.057.028 4.586.011 2.31.06 4.616.111 6.925.094 8.583-.567 15.427-5.537 22.721l-2.187 3.25c-9.32 9.112-19.005 11.057-31.55 10.99l-3.57.006a2491.9 2491.9 0 0 1-9.77-.014c-3.516-.009-7.033-.006-10.55-.004-6.088.001-12.176-.005-18.264-.017-8.803-.016-17.606-.021-26.409-.024-14.282-.004-28.565-.017-42.848-.036-13.872-.018-27.744-.033-41.617-.041l-2.592-.002-12.875-.007c-35.59-.021-71.179-.056-106.768-.101v-11l4.426-.004a78773.766 78773.766 0 0 0 119.42-.21c13.758-.03 27.516-.047 41.274-.06 14.12-.012 28.24-.04 42.359-.08 8.71-.026 17.421-.04 26.132-.037 5.975 0 11.95-.015 17.926-.041 3.446-.015 6.892-.023 10.338-.014 3.741.007 7.482-.011 11.223-.035l3.28.023c8.062-.09 14.108-1.792 20.497-6.792 5.57-7.208 5.593-14.545 5.5-23.313l.035-3.326c-.027-7.59-.729-12.72-5.535-18.799-7.398-5.95-14.492-6.898-23.777-6.831l-3.55-.023c-3.23-.016-6.458-.015-9.687-.007-3.491.005-6.982-.013-10.472-.028-6.04-.023-12.081-.032-18.121-.031-8.734.002-17.467-.019-26.2-.044-14.17-.042-28.341-.065-42.512-.077a28990.836 28990.836 0 0 1-43.858-.07l-12.777-.03c-35.307-.082-70.614-.136-105.921-.171v-11l67-1-8-3c-2.207-1.832-2.207-1.832-3.812-3.813l-1.645-1.957c-4.468-6.458-5.037-11.422-4.98-19.105l-.061-2.895c.005-7.485 1.492-12.8 6.463-18.472l1.973-1.633 1.964-1.68c4.912-3.384 9.42-3.73 15.254-3.686z" fill="#363535"/><path d="m286.162 254.519 2.441-.01c2.69-.007 5.38.015 8.07.037a2832.098 2832.098 0 0 1 21.513.049c5.478.024 10.955.027 16.432.032 10.37.012 20.74.045 31.11.085 11.806.045 23.612.067 35.418.087 24.285.042 48.57.112 72.854.201l-2 1c-3.03 6.44-4.345 12.85-4.25 19.938l.012 2.119c.083 4.961.674 9.251 2.238 13.943h2l1 3H307v-22h-17v22c-13.997.424-13.997.424-18-3-3.994-5.563-4.627-10.933-4.5-17.625-.015-.82-.03-1.64-.047-2.484.035-5.425.842-8.68 4.547-12.891 4.668-3.783 8.31-4.573 14.162-4.481z" fill="#D1D3D4"/><path d="m453.08 390.612 2.494-.016c2.724-.013 5.448-.005 8.172.006a2561.302 2561.302 0 0 1 17.576.007c5.086.017 10.171.007 15.257-.01 3.908-.012 7.815-.008 11.723 0 1.875.002 3.75 0 5.625-.008 2.622-.008 5.242.004 7.864.02l2.35-.018c3.103.037 5.516.246 8.34 1.574 2.121 2.56 2.02 4.238 2.02 7.542l.03 3.55-.035 3.835.005 3.934a937.19 937.19 0 0 1-.034 8.241 904.24 904.24 0 0 0-.013 10.562c.008 3.359-.007 6.717-.02 10.075l.008 3.836-.038 3.549-.016 3.129C534 453 534 453 532.986 454.833c-3.201 1.881-6.564 1.583-10.173 1.555l-2.53.016a979.68 979.68 0 0 1-8.283-.006 2627.964 2627.964 0 0 1-17.805-.007c-5.155-.017-10.31-.007-15.465.01-3.958.012-7.916.008-11.875 0-1.9-.002-3.802 0-5.703.008-2.655.007-5.31-.004-7.964-.02l-2.39.018c-2.93-.035-5.222-.069-7.785-1.574-1.431-2.59-1.394-4.588-1.401-7.542l-.029-3.55.019-3.835-.01-3.934c-.004-2.747.003-5.494.017-8.241.017-3.521.007-7.041-.01-10.562-.014-3.359-.005-6.717.003-10.075l-.019-3.836.029-3.549.007-3.129c.381-2.58.381-2.58 1.4-4.413 3.172-1.869 6.483-1.583 10.06-1.555z" fill="#D3D3D5"/><path d="M256 557h328v16H256v-16z" fill="#4B769C"/><path d="M256 573h229c-21.129 14.086-48.07 22.75-73 27l-2.953.538C363.058 608.772 312.133 604.254 270 583a1351.797 1351.797 0 0 1-14-7v-3z" fill="#9FB8D9"/><path d="m285.156 246.76 2.476-.006c2.734-.003 5.469.008 8.203.019h5.884c5.324-.002 10.648.01 15.972.024 5.564.013 11.128.014 16.692.016 10.536.006 21.072.023 31.608.043 11.995.022 23.99.033 35.985.043 24.675.021 49.35.056 74.024.101v8l-3.075.004c-24.688.037-49.375.096-74.062.18-11.939.04-23.877.072-35.816.087-10.404.013-20.81.04-31.214.084-5.51.022-11.02.038-16.53.037-5.186 0-10.371.017-15.557.05-1.903.008-3.807.01-5.71.004-2.6-.007-5.198.011-7.798.035l-2.281-.023c-5.116.083-8.002 1.344-11.957 4.542-3.72 4.366-3.484 8.84-3.437 14.312l-.061 2.475c.004 5.684.93 10.632 4.498 15.213 3.528 2.175 6.635 2.378 10.75 2.625L290 295v-22h17v22h169v9H307l-1 3-2-2c-2.302-.32-2.302-.32-4.875-.25l-2.617-.016c-2.613.277-4.258.947-6.508 2.266v-3l-1.836.14c-7.634.33-14.358-.778-20.242-5.976-6.645-7.287-8.431-13.325-8.36-23.039l-.06-2.895c.005-7.485 1.492-12.8 6.463-18.472l1.973-1.633 1.964-1.68c4.912-3.384 9.42-3.73 15.254-3.686z" fill="#3C9284"/><path d="M200 515h130v2h-74v28h21v1h-21v45c-12.375-7.875-12.375-7.875-18-13-4.66 1.521-7.935 4.09-11.688 7.125C220.262 590 220.262 590 218 590v-73h-18v-2z" fill="#BF6471"/><path d="m306 295 169 1v7c-21.887.023-43.774.041-65.662.052-10.161.005-20.323.012-30.485.023-8.854.01-17.708.017-26.561.02-4.691 0-9.382.003-14.073.01-4.41.007-8.82.01-13.23.008-1.624 0-3.247.002-4.87.006-2.207.005-4.414.004-6.62.001l-3.752.003C307 303 307 303 306 302v-7z" fill="#2C967E"/><path d="m286.193 247.753 2.415-.008c2.654-.005 5.309.003 7.964.012l5.727-.006c5.173-.005 10.346.003 15.52.013 5.411.01 10.824.007 16.236.007 9.083 0 18.166.01 27.249.023 10.512.016 21.023.021 31.535.02 10.107 0 20.214.005 30.32.013 4.306.004 8.61.006 12.915.006 5.062.001 10.124.007 15.186.017 1.862.003 3.723.004 5.585.004 2.532 0 5.064.005 7.597.012l2.255-.004c5.075.024 5.075.024 7.303 1.138v3c-3.05 1.525-6.226 1.143-9.572 1.138l-2.395.009c-2.663.008-5.326.01-7.99.01l-5.71.016c-4.106.011-8.213.02-12.32.026-6.491.01-12.983.031-19.474.053-18.462.062-36.924.116-55.386.15-10.19.018-20.381.047-30.572.087-5.395.021-10.79.037-16.185.04-5.075.001-10.15.017-15.225.044-1.864.007-3.727.009-5.591.005-2.543-.003-5.085.011-7.627.03l-2.24-.017c-4.476.058-7.03.929-10.713 3.409h-3l-.813 1.938C268 261 268 261 265 262l1-5 3-1 .75-2.937L271 250c5.066-1.943 9.785-2.285 15.193-2.247z" fill="#2D977D"/><path d="M290 273h17v22h169v9H307l-1 3-2-2c-2.302-.32-2.302-.32-4.875-.25l-2.617-.016c-2.613.277-4.258.947-6.508 2.266v-3h-10v-1l7-2 1-4-9-1v-1h11v-22zm16 22v7c1.089 1.313 1.089 1.313 3.747 1.123l3.751-.003 2.082.003c2.318.002 4.637-.004 6.955-.01l4.966.001c4.508 0 9.016-.006 13.524-.013 4.706-.006 9.412-.006 14.118-.008 8.918-.003 17.836-.011 26.753-.021 10.15-.011 20.3-.017 30.45-.022 20.884-.01 41.77-.028 62.654-.05v-7l-169-1z" fill="#568697"/><path d="m194.544 459.752 3.293.002 3.791-.012 4.204.017a3441.045 3441.045 0 0 1 16.667.008c4.39.01 8.782.007 13.173.005 7.613-.001 15.227.005 22.84.017 11.007.016 22.014.021 33.022.024 17.857.004 35.714.017 53.571.036 17.35.018 34.7.033 52.05.041l3.24.002 16.085.007c44.507.021 89.013.056 133.52.101v3l-360-1c2-2 2-2 4.544-2.248z" fill="#756D87"/><path d="m476 243-1 2 3 1v8l-2 1v-8H280v-2c2.93-1.465 5.883-1.15 9.096-1.151l2.24-.013c2.49-.013 4.98-.02 7.471-.025l5.341-.026c3.842-.018 7.683-.033 11.525-.045 6.076-.02 12.153-.048 18.229-.077 12.908-.06 25.815-.112 38.723-.163 13.913-.055 27.826-.112 41.74-.178 6.037-.028 12.075-.051 18.112-.071 3.763-.014 7.526-.031 11.29-.05 1.741-.008 3.483-.014 5.224-.018 2.384-.006 4.767-.018 7.151-.032h2.071c3.417-.026 6.74-.235 10.122-.688 3.095-.391 4.809-.534 7.665.537z" fill="#98BED5"/><path d="M466 268h1l.148 3.219c.536 10.526.536 10.526 2.852 20.781h2l1 3H308v-21h2l-1 19 4.606-.492c6.902-.623 13.765-.648 20.69-.637l4.207-.006c3.775-.004 7.55-.003 11.324 0 3.962.003 7.925 0 11.888 0 6.645-.003 13.29 0 19.936.005 7.678.005 15.355.003 23.032-.002 6.607-.005 13.215-.005 19.822-.003 3.94.002 7.88.002 11.82-.001 3.698-.003 7.397-.001 11.095.005 2.002.002 4.004-.001 6.005-.005l3.619.009 3.138.001c2.71.121 5.18.516 7.818 1.126l-.992-1.855c-1.443-4.5-1.22-8.765-1.133-13.457l.027-2.823c.024-2.288.057-4.577.098-6.865z" fill="#C9DBD9"/><path d="M186 390h1v69h362l-1-66-3-1v-2h5v70H186v-70z" fill="#B8617B"/><path d="m452.172 388.757 2.523-.006c2.757-.003 5.513.007 8.27.019 1.914 0 3.828.001 5.743 0 4.014.002 8.028.01 12.042.024 5.146.017 10.292.021 15.438.02 3.954 0 7.908.006 11.862.013 1.897.003 3.795.005 5.692.006 2.652.002 5.305.011 7.957.022l2.379-.002c3.49.02 6.56.273 9.922 1.147h2l-.007 2.258c-.02 7.018-.035 14.037-.045 21.056-.005 3.608-.012 7.216-.023 10.825-.011 3.482-.017 6.964-.02 10.445-.003 1.976-.01 3.952-.018 5.928v3.64l-.007 3.21c.005 2.747.005 2.747 1.12 5.638l-3 3-3-1 2-2c.314-2.575.314-2.575.275-5.611l.029-3.56-.003-3.86.013-3.946c.007-2.757.007-5.514.002-8.272-.006-3.537.01-7.075.034-10.612.018-3.37.015-6.739.013-10.108l.028-3.86-.019-3.56.002-3.144L533 394c-3.823-2.549-6.899-2.267-11.327-2.227H519.1c-2.808 0-5.616.016-8.424.032l-5.839.008c-5.124.008-10.249.028-15.373.05-5.228.02-10.456.03-15.685.04-10.26.02-20.52.055-30.779.097-.046 7.919-.082 15.838-.104 23.757-.01 3.676-.024 7.353-.047 11.03-.022 3.547-.034 7.093-.039 10.64-.003 1.355-.01 2.71-.021 4.065a756.202 756.202 0 0 0-.016 5.681l-.014 3.27c-.017 2.724-.017 2.724 2.241 4.557 2.709.218 5.318.311 8.03.319l2.513.03c2.749.031 5.497.048 8.246.065a5278.181 5278.181 0 0 0 20.751.187c5.114.04 10.229.091 15.343.141 10.039.097 20.078.181 30.117.258v1h-88v-2h-2c.061-8.31.138-16.62.236-24.93.044-3.858.084-7.717.11-11.575.026-3.722.067-7.444.117-11.166.017-1.421.028-2.843.035-4.265.01-1.987.039-3.975.07-5.962l.033-3.432L441 391c3.787-2.524 6.787-2.274 11.172-2.243z" fill="#B06670"/><path d="m285.681 254.88 2.431-.003c2.702-.001 5.405.004 8.107.01l5.794-.001c5.256 0 10.512.006 15.768.013 5.488.006 10.976.006 16.464.008 10.398.003 20.796.011 31.194.021 11.835.011 23.67.017 35.506.022 24.352.01 48.703.028 73.055.05l-2 1-1 3h-2v-2l-192 1v2h-5c4.615-4.77 7.188-5.145 13.681-5.12z" fill="#BFDDDB"/><path d="M533 394h1c.07 7.64.123 15.281.155 22.922.016 3.548.037 7.096.071 10.644.04 4.078.054 8.156.067 12.235.015 1.275.03 2.55.047 3.864v3.578l.02 3.156C534 453 534 453 532.994 454.84c-3.222 1.877-6.604 1.55-10.228 1.502h-2.543c-2.776-.001-5.552-.025-8.327-.048a3543.563 3543.563 0 0 1-20.967-.087c-5.168-.03-10.336-.044-15.504-.06A9980.617 9980.617 0 0 1 445 456l-1-2 3.176.013c9.859.04 19.718.071 29.577.09 5.07.011 10.138.025 15.207.048 4.89.022 9.778.034 14.667.039 1.868.003 3.737.01 5.605.021 2.61.015 5.22.017 7.83.016l2.358.022c4.251.137 4.251.137 7.58-2.249.292-2.305.292-2.305.227-5v-3.155l-.032-3.415-.008-3.49c-.011-3.688-.037-7.376-.062-11.065-.01-2.496-.02-4.992-.027-7.488-.022-6.13-.056-12.258-.098-18.387l2-1c.656-2.527.656-2.527 1-5z" fill="#DAC8C8"/><path d="m306 295 4 2-1 5 1.654-.218c7.847-.919 15.636-.878 23.526-.804l4.527.03c4.067.026 8.135.058 12.202.093 4.261.034 8.523.063 12.784.092 8.057.056 16.114.117 24.17.18 9.179.072 18.356.138 27.534.203 18.868.135 37.735.277 56.603.424l1-5h2v6c-21.887.023-43.774.041-65.662.052-10.161.005-20.323.012-30.485.023-8.854.01-17.708.017-26.561.02-4.691 0-9.382.003-14.073.01-4.41.007-8.82.01-13.23.008-1.624 0-3.247.002-4.87.006-2.207.005-4.414.004-6.62.001l-3.752.003C307 303 307 303 306 302c-.04-2.333-.042-4.667 0-7z" fill="#3D9184"/><path d="M441 396h1l.025 2.15c.077 6.681.165 13.362.263 20.042.05 3.435.096 6.87.134 10.304.044 3.947.103 7.893.164 11.84l.035 3.747.06 3.458.04 3.055c.048 2.587.048 2.587 2.279 4.404 2.709.218 5.318.311 8.03.319l2.513.03c2.749.031 5.497.048 8.246.065a5278.177 5278.177 0 0 0 20.751.187c5.114.04 10.229.091 15.343.141 10.039.097 20.078.181 30.117.258v1h-88v-2h-2l1-59z" fill="#B66F78"/><path d="M582 560h1v13H478v-1l3.732-.031c11.595-.098 23.19-.2 34.785-.308 5.961-.056 11.922-.109 17.884-.158 5.751-.048 11.502-.1 17.253-.156 2.197-.02 4.393-.04 6.589-.056 3.072-.024 6.143-.054 9.215-.086l2.762-.017 2.54-.03 2.202-.02c2.393-.102 2.393-.102 6.038-1.138l1-10z" fill="#4B6882"/><path d="m172 490 3 1-1 13-2-2c-1.767 3.834-2.29 6.969-2.414 11.176l-.117 3.506-.094 3.63-.117 3.69c-.094 3-.18 5.998-.258 8.998h-1c-.1-4.677-.172-9.354-.22-14.032a508.39 508.39 0 0 0-.082-4.763c-.19-8.867-.305-16.306 4.302-24.205z" fill="#C7D3DC"/><path d="M152 498h2l.076 3.241c.094 3.974.194 7.947.296 11.92.044 1.719.085 3.438.125 5.156.058 2.473.122 4.945.187 7.417l.05 2.324c.086 4.078.086 4.078.904 8.052L156 538l-2 2c-2.664-3.927-2.253-8.154-2.195-12.703l.008-2.539c.011-2.67.037-5.339.062-8.008.01-1.812.02-3.625.027-5.438.022-4.437.057-8.875.098-13.312z" fill="#5D7D97"/><path d="M180 553c2.215.492 4.147 1.067 6.218 2.013 3.313 1.175 6.102 1.308 9.614 1.401l3.916.117 4.065.094 4.123.117c3.354.094 6.709.18 10.064.258v1c-4.312.199-8.625.382-12.938.563l-3.673.17c-5.271.214-10.345.39-15.58-.33-3.876-.82-3.876-.82-6.809 1.597h-3a56.54 56.54 0 0 1 4-7z" fill="#5E7E9B"/><path d="m509 381 2 2-2 1 41 1v1h-51c3.268-2.179 6.38-3.498 10-5z" fill="#B3AAC7"/><path d="M279 295h12v8h10v1l-1.898.402-2.477.536-2.46.527c-2.194.458-2.194.458-4.165 1.535v-3h-10v-1l7-2 1-4-9-1v-1z" fill="#4C918B"/><path d="m269 251 2 1c-1.31 2.92-2.756 4.756-5 7l-1 3 3-1-1 3h-3l-1 5h-1c-1.468-7.098-1.468-7.098.688-11.25 2.008-2.389 4.026-4.627 6.312-6.75z" fill="#3B9689"/><path d="m268 288 1.277 1.367c5.598 5.306 12.267 6.327 19.723 6.633v1l-17 1 1-3-1.938-.688C269 293 269 293 268.25 290.375L268 288z" fill="#319176"/><path d="M472 257c.688 1.75.688 1.75 1 4a99.797 99.797 0 0 1-3 4c-1.369 4.688-1.112 9.476-1.063 14.313l.014 2.533c.012 2.051.03 4.103.049 6.154-2.396-3.714-2.345-7.409-2.313-11.688l.009-2.156c.123-6.231.68-12.533 5.304-17.156z" fill="#A6B7CE"/><path d="M231 172v2c-2.005 1.647-4.12 3.083-6.25 4.563L223 180v2c-2.652 1.075-5.284 2.095-8 3l-1 3-2-1c3.632-5.059 12.412-15 19-15z" fill="#A6B7D0"/><path d="M268 150c-1.37 3.161-1.99 3.993-5 6l-2-1-1 2a252.656 252.656 0 0 1-6 2l-3 2v-3c2.456-1.338 4.914-2.67 7.375-4l2.117-1.156C265.773 150 265.773 150 268 150z" fill="#A8BAD0"/><path d="M466 268h1l.113 3.148c.355 8.012.992 15.279 3.887 22.852h-6l3-1-.992-1.855c-1.443-4.5-1.22-8.765-1.133-13.457l.027-2.823c.024-2.288.057-4.577.098-6.865z" fill="#C8D1DD"/><path d="M345 130c-2.805 1.517-5.386 2.453-8.5 3.125l-2.281.508C332 134 332 134 328 134v-3c1.894-.365 3.79-.717 5.688-1.063l3.199-.597c3.025-.33 5.193-.115 8.113.66z" fill="#A5B8CF"/><path d="M169 536h3l.664 2.082c2.003 5.957 2.003 5.957 6.586 10.043L182 549v2l-3 1c-4.89-5.038-7.952-9.255-10-16z" fill="#C3D0DD"/><path d="M518 373c-1.312 3.935-3.96 5.75-7.148 8.145-2.347 1.084-3.469.71-5.852-.145 2.154-2.37 4.16-3.58 7-5l1.563-1.625C515 373 515 373 518 373z" fill="#343844"/><path d="M262 289c1.938.813 1.938.813 4 2l1 3 3 1 4 4c2.133 1.235 2.133 1.235 4 2-1.625.75-1.625.75-4 1-5.497-2.924-10-6.998-12-13z" fill="#369186"/><path d="M236 577c2.884 1.293 4.872 2.66 7 5-2.65 0-4.473-.368-7-1h-3v2h-2l-1 3-3-1c2.853-2.932 5.65-5.643 9-8z" fill="#FBE4E7"/><path d="m256 574 9 1v2l3 1-1 3c-4.033-1.22-7.543-2.56-11-5v-2z" fill="#ABBCD7"/><path d="m575 480 1 3c-1.215 2.262-1.215 2.262-2.938 4.688l-1.714 2.449L570 492c-1.56-3.119-.655-5.663 0-9l2-2 1 1 2-2z" fill="#C9CCD3"/><path d="M216 319h2c2.853 5.732 4.534 10.599 5 17h-2c-1.707-5.656-3.393-11.315-5-17z" fill="#A7B8D0"/><path d="m277 247-12 8v-4c4.001-3.43 6.758-4.5 12-4z" fill="#8CBFD0"/><path d="M266 286c2 2 2 2 2.938 4.5.92 2.802.92 2.802 4.062 4.5l-1 3c-3.425-2.283-5.526-4.724-8-8v-3l2-1z" fill="#289C7D"/><path d="M186 479c-.438 2.875-.438 2.875-2 6-2.936 1.16-5.875 1.627-9 2 2.783-3.814 5.878-8 11-8z" fill="#C2D2DE"/><path d="M512 389c2.917-.027 5.833-.047 8.75-.063l2.5-.025 2.422-.01 2.222-.016c2.155.117 4.026.56 6.106 1.114h2l-1 3c-4.75-.875-4.75-.875-7-2-2.713-.232-5.408-.42-8.125-.563l-2.285-.13A1636.52 1636.52 0 0 0 512 390v-1z" fill="#BB6273"/><path d="m169 561 5 2v2l9 3-4 2c-2.578-1.012-2.578-1.012-5.25-2.688l-2.703-1.636L169 564v-3z" fill="#587A94"/><path d="M157 479h2c-.568 5.54-2.629 10.037-5 15h-1c-.282-4.89-.204-7.283 3-11 .705-2.147.705-2.147 1-4z" fill="#E5F5FB"/><path d="M154 260c2 3 2 3 1.625 5.188L155 267h-2l-.313 1.813c-.776 2.47-1.758 3.51-3.687 5.187 1.3-4.9 2.924-9.376 5-14z" fill="#AABAD1"/><path d="M505 304c3.375.75 3.375.75 7 2 1.25 2 1.25 2 2 4l3 2-2 1c-1.46-.955-2.918-1.914-4.375-2.875l-2.46-1.617C506 307 506 307 504 305l1-1z" fill="#9CB0C5"/><path d="M280 303h21v1l-1.898.402-2.477.536-2.46.527c-2.194.458-2.194.458-4.165 1.535v-3h-10v-1z" fill="#5B868F"/><path d="M587 273c2.226 3.34 3.161 6.086 4 10l-2 3c-1.354-2.709-1.065-5.01-1-8h-2l1-5z" fill="#A9BDD4"/><path d="M518 315c4.875.875 4.875.875 6 2 .04 1.666.043 3.334 0 5l-2 1-4-8z" fill="#A3B3C7"/><path d="m509 381 2 2c-1.708 2.106-2.521 2.938-5.262 3.293l-2.425-.106-2.45-.082L499 386c3.268-2.179 6.38-3.498 10-5z" fill="#A9A9BF"/><path d="M219 360h3l-.875 2.125c-1.146 2.93-2.151 5.884-3.125 8.875l-2-1 3-10z" fill="#A9BBD1"/><path d="M569 241c3 1 3 1 5 4v3h-4l-1-7z" fill="#A9BAD3"/><path d="M305 300c2 2 2 2 2.125 4.625L307 307l-6-3 1-3 3-1z" fill="#4F758D"/><path d="M282 297c3.125-.188 3.125-.188 6 0v3h-8l2-3z" fill="#259C7E"/><path d="M488 161c3.46 1.25 6.147 2.675 9 5-3.375-.25-3.375-.25-7-1-1.438-2.063-1.438-2.063-2-4z" fill="#A8BAD1"/><path d="M134 390h1v7h-2v5h-1c-.178-4.548.002-7.88 2-12z" fill="#ABC1DC"/><path d="M595 295c1.648 2.967 2.443 5.656 3 9h-3c-1.125-6.75-1.125-6.75 0-9z" fill="#AEBDD4"/><path d="m244 162 1 3-3 3-3-1v-2c2.5-1.625 2.5-1.625 5-3z" fill="#AABAD1"/><path d="M473.625 575.875 477 576c-2.135 2.455-3.707 3.681-7 4l-2-2c2-2 2-2 5.625-2.125z" fill="#A1B4CD"/><path d="M266 296c1.336.808 2.669 1.622 4 2.438l2.25 1.37L274 301v1l-7-1-1-5z" fill="#85BCCB"/><path d="M187 393h5v3h-4l-1 2v-5z" fill="#CA5771"/><path d="m203 194 1 3-6 5-2-1 7-7z" fill="#A5B7CE"/></svg>